<?xml version="1.0" ?><!DOCTYPE svg  PUBLIC '-//W3C//DTD SVG 1.1//EN'  'http://www.w3.org/Graphics/SVG/1.1/DTD/svg11.dtd'><svg enable-background="new 0 0 128 128" id="Layer_1" version="1.1" viewBox="0 0 128 128" xml:space="preserve" xmlns="http://www.w3.org/2000/svg" xmlns:xlink="http://www.w3.org/1999/xlink"><circle cx="64" cy="64" fill="#4B5F83" id="circle" r="64"/><g id="icon"><path d="M64,94L64,94c-9.6,0-17.5-7.9-17.5-17.5v-25C46.5,41.9,54.4,34,64,34" fill="#FFFFFF" id="left"/><path d="M64,34L64,34c9.6,0,17.5,7.9,17.5,17.5v25C81.5,86.1,73.6,94,64,94" fill="#E6E6E6" id="righ"/><path d="M64,52.9L64,52.9c-1.1,0-2-0.9-2-2v-4c0-1.1,0.9-2,2-2h0c1.1,0,2,0.9,2,2v4   C66,52,65.1,52.9,64,52.9z" fill="#B3B3B3" id="scroll"/></g></svg>